<svg width="109" height="69" viewBox="0 0 109 69" fill="none" xmlns="http://www.w3.org/2000/svg">
<g filter="url(#filter0_d_194_64619)">
<mask id="path-1-inside-1_194_64619" fill="white">
<path d="M95 4C98.3137 4 101 6.68629 101 10V39C101 42.3137 98.3137 45 95 45H61.6299L55.377 56.4014C54.9973 57.0935 54.0027 57.0935 53.623 56.4014L47.3701 45H14C10.6863 45 8 42.3137 8 39V10C8 6.68629 10.6863 4 14 4H95Z"/>
</mask>
<path d="M95 4C98.3137 4 101 6.68629 101 10V39C101 42.3137 98.3137 45 95 45H61.6299L55.377 56.4014C54.9973 57.0935 54.0027 57.0935 53.623 56.4014L47.3701 45H14C10.6863 45 8 42.3137 8 39V10C8 6.68629 10.6863 4 14 4H95Z" fill="white"/>
<path d="M61.6299 45V44H61.0378L60.7531 44.5191L61.6299 45ZM55.377 56.4014L56.2537 56.8823L56.2537 56.8822L55.377 56.4014ZM53.623 56.4014L52.7463 56.8822L52.7463 56.8823L53.623 56.4014ZM47.3701 45L48.2469 44.5191L47.9622 44H47.3701V45ZM95 4V5C97.7614 5 100 7.23858 100 10H101H102C102 6.13401 98.866 3 95 3V4ZM101 10H100V39H101H102V10H101ZM101 39H100C100 41.7614 97.7614 44 95 44V45V46C98.866 46 102 42.866 102 39H101ZM95 45V44H61.6299V45V46H95V45ZM61.6299 45L60.7531 44.5191L54.5002 55.9205L55.377 56.4014L56.2537 56.8822L62.5067 45.4809L61.6299 45ZM55.377 56.4014L54.5002 55.9205L54.4998 55.9205L53.623 56.4014L52.7463 56.8823C53.5055 58.2665 55.4945 58.2665 56.2537 56.8823L55.377 56.4014ZM53.623 56.4014L54.4998 55.9205L48.2469 44.5191L47.3701 45L46.4933 45.4809L52.7463 56.8822L53.623 56.4014ZM47.3701 45V44H14V45V46H47.3701V45ZM14 45V44C11.2386 44 9 41.7614 9 39H8H7C7 42.866 10.134 46 14 46V45ZM8 39H9V10H8H7V39H8ZM8 10H9C9 7.23858 11.2386 5 14 5V4V3C10.134 3 7 6.13401 7 10H8ZM14 4V5H95V4V3H14V4Z" fill="#D0C9BA" mask="url(#path-1-inside-1_194_64619)"/>
</g>
<path d="M30.2188 18.2656V32.4062H28.4688V18.2656H30.2188ZM22.6094 19.2969C24.7344 19.2969 26.2812 21.2344 26.2969 24.2812C26.2812 27.3594 24.7344 29.2812 22.6094 29.2812C20.4688 29.2812 18.9219 27.3594 18.9219 24.2812C18.9219 21.2344 20.4688 19.2969 22.6094 19.2969ZM22.6094 20.8594C21.4062 20.8594 20.5938 22.125 20.5938 24.2812C20.5938 26.4531 21.4062 27.7188 22.6094 27.7188C23.7969 27.7188 24.6094 26.4531 24.6094 24.2812C24.6094 22.125 23.7969 20.8594 22.6094 20.8594ZM36.8594 20.2344C36.8594 20.9609 37.5078 21.8594 38.7344 22.3438C39.9297 21.875 40.5625 20.9844 40.5625 20.2344V20.1719H39V18.7656H44.2812V20.1719H42.3281V20.2812C42.3281 21.25 43.1719 22.3125 44.875 22.7188L44.125 23.9844C42.7422 23.625 41.8438 22.8438 41.3906 21.8906C40.9062 22.7422 40.0391 23.4766 38.7188 23.7969C37.4062 23.4531 36.5312 22.7109 36.0625 21.8594C35.6016 22.8125 34.7031 23.6172 33.3281 23.9844L32.5938 22.7188C34.25 22.2969 35.1406 21.1875 35.1406 20.2812V20.1719H33.1406V18.7656H38.4375V20.1719H36.8594V20.2344ZM45.1719 25.1094V26.5H32.2969V25.1094H37.8594V23.8594H39.5781V25.1094H45.1719ZM43.5938 27.75V32.3906H41.8438V29.1406H33.6875V27.75H43.5938ZM57.875 18.2656V32.4062H56.125V18.2656H57.875ZM50.2656 19.2969C52.3906 19.2969 53.9375 21.2344 53.9531 24.2812C53.9375 27.3594 52.3906 29.2812 50.2656 29.2812C48.125 29.2812 46.5781 27.3594 46.5781 24.2812C46.5781 21.2344 48.125 19.2969 50.2656 19.2969ZM50.2656 20.8594C49.0625 20.8594 48.25 22.125 48.25 24.2812C48.25 26.4531 49.0625 27.7188 50.2656 27.7188C51.4531 27.7188 52.2656 26.4531 52.2656 24.2812C52.2656 22.125 51.4531 20.8594 50.2656 20.8594ZM72.1406 18.2656V32.3906H70.4688V18.2656H72.1406ZM69.2344 18.5156V31.7031H67.5781V24.9844H66.2344C66.0703 27.7344 64.8906 29.4375 63.1406 29.4219C61.2969 29.4375 60.0938 27.4844 60.0938 24.375C60.0938 21.2656 61.2969 19.3438 63.1406 19.3438C64.8516 19.3438 66.0156 20.9375 66.2188 23.5781H67.5781V18.5156H69.2344ZM63.1406 20.9844C62.25 20.9688 61.6875 22.1719 61.7031 24.375C61.6875 26.5781 62.25 27.7812 63.1406 27.7656C64.0781 27.7812 64.6406 26.5781 64.6406 24.375C64.6406 22.1719 64.0781 20.9688 63.1406 20.9844ZM86.6875 29.25V30.6719H73.7812V29.25H76.7656V25.6719C75.6406 25.0312 74.9609 24.0234 74.9688 22.7656C74.9531 20.5156 77.1719 19.0312 80.2031 19.0312C83.25 19.0312 85.4688 20.5156 85.4688 22.7656C85.4688 24 84.8125 24.9922 83.7188 25.6406V29.25H86.6875ZM80.2031 20.4062C78.0938 20.4062 76.6562 21.2969 76.6719 22.7656C76.6562 24.2188 78.0938 25.125 80.2031 25.125C82.3125 25.125 83.7656 24.2188 83.7656 22.7656C83.7656 21.2969 82.3125 20.4062 80.2031 20.4062ZM78.4844 29.25H81.9531V26.2969C81.4141 26.4219 80.8281 26.4844 80.2031 26.4844C79.5938 26.4844 79.0156 26.4219 78.4844 26.3125V29.25ZM90.5156 19.6875L90.3438 27.6719H88.5781L88.3906 19.6875H90.5156ZM89.4688 31.125C88.7969 31.125 88.25 30.5781 88.25 29.9062C88.25 29.25 88.7969 28.7031 89.4688 28.7031C90.1094 28.7031 90.6719 29.25 90.6719 29.9062C90.6719 30.5781 90.1094 31.125 89.4688 31.125Z" fill="#895C41"/>
<defs>
<filter id="filter0_d_194_64619" x="0" y="0" width="109" height="68.9209" filterUnits="userSpaceOnUse" color-interpolation-filters="sRGB">
<feFlood flood-opacity="0" result="BackgroundImageFix"/>
<feColorMatrix in="SourceAlpha" type="matrix" values="0 0 0 0 0 0 0 0 0 0 0 0 0 0 0 0 0 0 127 0" result="hardAlpha"/>
<feOffset dy="4"/>
<feGaussianBlur stdDeviation="4"/>
<feComposite in2="hardAlpha" operator="out"/>
<feColorMatrix type="matrix" values="0 0 0 0 0 0 0 0 0 0 0 0 0 0 0 0 0 0 0.12 0"/>
<feBlend mode="normal" in2="BackgroundImageFix" result="effect1_dropShadow_194_64619"/>
<feBlend mode="normal" in="SourceGraphic" in2="effect1_dropShadow_194_64619" result="shape"/>
</filter>
</defs>
</svg>
