<svg width="32" height="32" viewBox="0 0 32 32" fill="none" xmlns="http://www.w3.org/2000/svg">
<circle cx="16" cy="16" r="15" fill="#F8BE66" stroke="white" stroke-width="2"/>
<path d="M13.5502 19.15L22.0252 10.675C22.2252 10.475 22.4585 10.375 22.7252 10.375C22.9918 10.375 23.2252 10.475 23.4252 10.675C23.6252 10.875 23.7252 11.1127 23.7252 11.388C23.7252 11.6633 23.6252 11.9007 23.4252 12.1L14.2502 21.3C14.0502 21.5 13.8168 21.6 13.5502 21.6C13.2835 21.6 13.0502 21.5 12.8502 21.3L8.55018 17C8.35018 16.8 8.25418 16.5627 8.26218 16.288C8.27018 16.0133 8.37451 15.7757 8.57518 15.575C8.77585 15.3743 9.01351 15.2743 9.28818 15.275C9.56285 15.2757 9.80018 15.3757 10.0002 15.575L13.5502 19.15Z" fill="#FFF8E9"/>
</svg>
