<?xml version="1.0" encoding="UTF-8"?>
<svg id="_레이어_2" data-name="레이어 2" xmlns="http://www.w3.org/2000/svg" viewBox="0 0 79 79">
  <defs>
    <style>
      .cls-1 {
        fill: #895c41;
      }

      .cls-1, .cls-2 {
        stroke: #895c41;
      }

      .cls-2 {
        fill: none;
        stroke-width: 11px;
      }
    </style>
  </defs>
  <g id="_레이어_1-2" data-name="레이어 1">
    <circle class="cls-2" cx="39.5" cy="39.5" r="34"/>
    <path class="cls-1" d="M51.89,28.72c.65,0,1.22.25,1.7.72.47.47.72,1.06.72,1.72s-.25,1.24-.72,1.72h0s-17.58,17.63-17.58,17.63h0c-.47.47-1.04.72-1.7.72-.65,0-1.22-.25-1.69-.72l-8.24-8.24c-.48-.48-.72-1.06-.7-1.73.02-.66.27-1.23.75-1.71.48-.48,1.06-.72,1.72-.72.66,0,1.24.25,1.72.72h0s6.45,6.5,6.45,6.5l15.89-15.89c.47-.47,1.04-.72,1.7-.72Z"/>
  </g>
</svg>