<svg width="79" height="79" viewBox="0 0 79 79" fill="none" xmlns="http://www.w3.org/2000/svg">
<rect x="5.5" y="5.5" width="68" height="68" rx="34" fill="#FFFCF4"/>
<rect x="5.5" y="5.5" width="68" height="68" rx="34" stroke="#895C41" stroke-width="11"/>
<path d="M51.8896 28.2188C52.542 28.2188 53.1142 28.4697 53.585 28.9404C54.059 29.4146 54.3066 29.996 54.3066 30.6602C54.3066 31.3241 54.0581 31.9039 53.584 32.377L53.585 32.3779L36 50.0117H35.999C35.5283 50.4824 34.9561 50.7334 34.3037 50.7334C33.6516 50.7333 33.08 50.4823 32.6094 50.0117L24.3672 41.7705C23.8897 41.2931 23.6495 40.7056 23.6689 40.0371C23.6882 39.3788 23.9437 38.8035 24.415 38.332C24.8902 37.8568 25.4724 37.6087 26.1367 37.6104C26.7989 37.612 27.3788 37.8591 27.8525 38.3311L27.8545 38.333L34.3047 44.8281L50.1943 28.9404C50.6651 28.4696 51.2373 28.2188 51.8896 28.2188Z" fill="#895C41" stroke="#895C41"/>
</svg>
