<svg width="20" height="22" viewBox="0 0 20 22" fill="none" xmlns="http://www.w3.org/2000/svg">
<path d="M1.27273 20.3093V1.69109C1.27273 1.45962 1.36468 1.23764 1.52834 1.07398C1.69201 0.910307 1.91399 0.818359 2.14546 0.818359H6.21818C6.44964 0.818359 6.67163 0.910307 6.83529 1.07398C6.99896 1.23764 7.09091 1.45962 7.09091 1.69109V20.3093C7.09091 20.5407 6.99896 20.7627 6.83529 20.9264C6.67163 21.09 6.44964 21.182 6.21818 21.182H2.14546C1.91399 21.182 1.69201 21.09 1.52834 20.9264C1.36468 20.7627 1.27273 20.5407 1.27273 20.3093ZM12.9091 20.3093V1.69109C12.9091 1.45962 13.001 1.23764 13.1647 1.07398C13.3284 0.910307 13.5504 0.818359 13.7818 0.818359H17.8545C18.086 0.818359 18.308 0.910307 18.4717 1.07398C18.6353 1.23764 18.7273 1.45962 18.7273 1.69109V20.3093C18.7273 20.5407 18.6353 20.7627 18.4717 20.9264C18.308 21.09 18.086 21.182 17.8545 21.182H13.7818C13.5504 21.182 13.3284 21.09 13.1647 20.9264C13.001 20.7627 12.9091 20.5407 12.9091 20.3093Z" fill="currentColor" stroke="currentColor" stroke-width="1.5"/>
</svg>
