<svg width="20" height="20" viewBox="0 0 20 20" fill="none" xmlns="http://www.w3.org/2000/svg">
<path d="M5.4 1.593C5.58403 1.26174 5.8533 0.985722 6.1799 0.793542C6.5065 0.601362 6.87855 0.500014 7.2575 0.5H10.7425C11.1214 0.500014 11.4935 0.601362 11.8201 0.793542C12.1467 0.985722 12.416 1.26174 12.6 1.593L13.243 2.75H15.125C15.8875 2.75 16.6188 3.0529 17.1579 3.59207C17.6971 4.13124 18 4.8625 18 5.625V9.022C16.9554 8.35284 15.7405 7.99809 14.5 8C13.9095 8 13.337 8.079 12.793 8.2265C12.5709 7.56574 12.1799 6.9745 11.6589 6.51138C11.1379 6.04826 10.5049 5.72934 9.82266 5.58623C9.14042 5.44312 8.43262 5.4808 7.76942 5.69551C7.10622 5.91023 6.51064 6.29454 6.04173 6.81034C5.57281 7.32615 5.24684 7.95555 5.09611 8.63615C4.94538 9.31675 4.97514 10.0249 5.18243 10.6905C5.38972 11.356 5.76735 11.9559 6.27788 12.4305C6.78841 12.9052 7.41413 13.2382 8.093 13.3965C7.88619 14.6118 8.02657 15.8609 8.498 17H2.875C2.1125 17 1.38124 16.6971 0.842068 16.1579C0.302901 15.6188 0 14.8875 0 14.125V5.625C0 4.8625 0.302901 4.13124 0.842068 3.59207C1.38124 3.0529 2.1125 2.75 2.875 2.75H4.7575L5.4 1.593ZM9 6.75C8.32026 6.74905 7.66425 6.99988 7.15855 7.45409C6.65284 7.90831 6.33328 8.53372 6.26152 9.20967C6.18976 9.88561 6.37088 10.5642 6.76994 11.1145C7.16899 11.6647 7.75771 12.0477 8.4225 12.1895C9.00831 10.6555 10.151 9.39872 11.6225 8.67C11.4461 8.11283 11.0968 7.62634 10.6253 7.28111C10.1537 6.93587 9.58442 6.74984 9 6.75ZM14.5 20C17.5375 20 20 17.5375 20 14.5C20 11.4625 17.5375 9 14.5 9C11.4625 9 9 11.4625 9 14.5C9 17.5375 11.4625 20 14.5 20ZM14.5 11C14.6326 11 14.7598 11.0527 14.8536 11.1464C14.9473 11.2402 15 11.3674 15 11.5V14H17.5C17.6326 14 17.7598 14.0527 17.8536 14.1464C17.9473 14.2402 18 14.3674 18 14.5C18 14.6326 17.9473 14.7598 17.8536 14.8536C17.7598 14.9473 17.6326 15 17.5 15H15V17.5C15 17.6326 14.9473 17.7598 14.8536 17.8536C14.7598 17.9473 14.6326 18 14.5 18C14.3674 18 14.2402 17.9473 14.1464 17.8536C14.0527 17.7598 14 17.6326 14 17.5V15H11.5C11.3674 15 11.2402 14.9473 11.1464 14.8536C11.0527 14.7598 11 14.6326 11 14.5C11 14.3674 11.0527 14.2402 11.1464 14.1464C11.2402 14.0527 11.3674 14 11.5 14H14V11.5C14 11.3674 14.0527 11.2402 14.1464 11.1464C14.2402 11.0527 14.3674 11 14.5 11Z" fill="currentColor"/>
</svg>
