<svg width="22" height="25" viewBox="0 0 22 25" fill="none" xmlns="http://www.w3.org/2000/svg">
<path d="M2.484 0.875844C2.34736 0.794828 2.19171 0.751422 2.03286 0.750034C1.87401 0.748647 1.71763 0.789328 1.57959 0.867945C1.44155 0.946562 1.32679 1.06031 1.24694 1.19764C1.1671 1.33497 1.12503 1.49099 1.125 1.64984V22.4908C1.12503 22.6497 1.1671 22.8057 1.24694 22.943C1.32679 23.0804 1.44155 23.1941 1.57959 23.2727C1.71763 23.3514 1.87401 23.392 2.03286 23.3907C2.19171 23.3893 2.34736 23.3459 2.484 23.2648L20.0685 12.8443C20.2028 12.7647 20.3141 12.6514 20.3913 12.5157C20.4686 12.38 20.5092 12.2265 20.5092 12.0703C20.5092 11.9142 20.4686 11.7607 20.3913 11.625C20.3141 11.4893 20.2028 11.376 20.0685 11.2963L2.484 0.875844Z" fill="currentColor" stroke="currentColor" stroke-width="1.5" stroke-linecap="round" stroke-linejoin="round"/>
</svg>
