<svg width="20" height="20" viewBox="0 0 20 21" fill="none" xmlns="http://www.w3.org/2000/svg">
<path d="M11.078 0.5C11.372 0.5 11.635 0.683 11.734 0.957L12.44 2.914C12.6927 2.97667 12.9107 3.04067 13.094 3.106C13.294 3.17733 13.554 3.28733 13.874 3.436L15.518 2.566C15.6521 2.49458 15.8058 2.46874 15.9559 2.49237C16.106 2.516 16.2443 2.58783 16.35 2.697L17.796 4.192C17.988 4.391 18.042 4.682 17.934 4.936L17.163 6.743C17.2903 6.97767 17.393 7.179 17.471 7.347C17.555 7.529 17.659 7.78233 17.783 8.107L19.58 8.877C19.85 8.992 20.017 9.262 19.999 9.551L19.867 11.626C19.858 11.7608 19.8096 11.89 19.7278 11.9975C19.646 12.1051 19.5345 12.1863 19.407 12.231L17.705 12.836C17.6563 13.0707 17.605 13.2727 17.551 13.442C17.4636 13.7044 17.3642 13.9627 17.253 14.216L18.108 16.106C18.1688 16.2387 18.1853 16.3875 18.1551 16.5303C18.1248 16.6731 18.0494 16.8024 17.94 16.899L16.314 18.351C16.2071 18.4466 16.0735 18.5071 15.9311 18.5243C15.7887 18.5414 15.6445 18.5145 15.518 18.447L13.842 17.559C13.5801 17.6984 13.3095 17.821 13.032 17.926L12.3 18.2L11.65 20C11.6014 20.1315 11.5144 20.2454 11.4002 20.3269C11.2861 20.4084 11.1502 20.4537 11.01 20.457L9.11 20.5C8.96605 20.5033 8.82458 20.4622 8.70486 20.3822C8.58514 20.3022 8.493 20.1873 8.441 20.053L7.675 18.026C7.41371 17.9365 7.15495 17.8398 6.899 17.736C6.68972 17.6454 6.4836 17.5477 6.281 17.443L4.381 18.255C4.25586 18.3087 4.11778 18.3247 3.98368 18.301C3.84957 18.2774 3.72527 18.2152 3.626 18.122L2.22 16.803C2.11493 16.7055 2.04337 16.5773 2.01553 16.4366C1.98769 16.296 2.00501 16.1502 2.065 16.02L2.882 14.24C2.77373 14.029 2.673 13.8142 2.58 13.596C2.47167 13.3288 2.37163 13.0584 2.28 12.785L0.490001 12.24C0.344502 12.196 0.217596 12.1052 0.128991 11.9817C0.0403864 11.8582 -0.00495751 11.7089 1.25819e-06 11.557L0.0700013 9.636C0.0752014 9.51072 0.114443 9.38922 0.183509 9.28456C0.252576 9.1799 0.348855 9.09605 0.462001 9.042L2.34 8.14C2.42667 7.82133 2.50333 7.572 2.57 7.392C2.66435 7.15025 2.76912 6.91269 2.884 6.68L2.07 4.96C2.00776 4.82948 1.98874 4.68252 2.01572 4.54045C2.04269 4.39839 2.11425 4.26862 2.22 4.17L3.624 2.844C3.72229 2.75095 3.84545 2.6884 3.97856 2.6639C4.11167 2.63941 4.24903 2.65403 4.374 2.706L6.272 3.49C6.48133 3.35067 6.672 3.236 6.844 3.146C7.04867 3.038 7.32334 2.92267 7.668 2.8L8.328 0.959C8.37729 0.824592 8.4666 0.708527 8.5839 0.626454C8.7012 0.544382 8.84084 0.500247 8.984 0.5H11.078ZM10.024 7.519C8.357 7.519 7.006 8.854 7.006 10.502C7.006 12.15 8.357 13.486 10.024 13.486C11.691 13.486 13.041 12.15 13.041 10.502C13.041 8.854 11.691 7.519 10.024 7.519Z" fill="currentColor"/>
</svg>
