<svg width="22" height="22" viewBox="0 0 22 22" fill="none" xmlns="http://www.w3.org/2000/svg">
<g clip-path="url(#clip0_194_64555)">
<path d="M17.4167 17.0412C17.1736 17.0412 16.9404 17.1377 16.7685 17.3096C16.5966 17.4816 16.5 17.7147 16.5 17.9578V19.9378C16.5 19.9986 16.4759 20.0569 16.4329 20.0999C16.3899 20.1428 16.3316 20.167 16.2708 20.167H2.0625C2.00477 20.1672 1.94909 20.1456 1.90661 20.1065C1.86412 20.0674 1.83795 20.0137 1.83333 19.9562V4.37283C1.83333 4.31205 1.85748 4.25376 1.90045 4.21078C1.94343 4.1678 2.00172 4.14366 2.0625 4.14366H3.20833C3.45145 4.14366 3.68461 4.04708 3.85651 3.87517C4.02842 3.70326 4.125 3.47011 4.125 3.22699C4.125 2.98388 4.02842 2.75072 3.85651 2.57881C3.68461 2.4069 3.45145 2.31033 3.20833 2.31033H1.83333C1.3471 2.31033 0.880788 2.50348 0.536971 2.8473C0.193154 3.19111 0 3.65743 0 4.14366L0 20.167C0 20.6532 0.193154 21.1195 0.536971 21.4634C0.880788 21.8072 1.3471 22.0003 1.83333 22.0003H16.5C16.9862 22.0003 17.4525 21.8072 17.7964 21.4634C18.1402 21.1195 18.3333 20.6532 18.3333 20.167V17.9578C18.3333 17.7147 18.2368 17.4816 18.0648 17.3096C17.8929 17.1377 17.6598 17.0412 17.4167 17.0412ZM15.125 4.12533H16.2708C16.3316 4.12533 16.3899 4.14947 16.4329 4.19245C16.4759 4.23542 16.5 4.29371 16.5 4.35449V5.04199C16.5 5.28511 16.5966 5.51827 16.7685 5.69017C16.9404 5.86208 17.1736 5.95866 17.4167 5.95866C17.6598 5.95866 17.8929 5.86208 18.0648 5.69017C18.2368 5.51827 18.3333 5.28511 18.3333 5.04199V4.12533C18.3333 3.6391 18.1402 3.17278 17.7964 2.82896C17.4525 2.48515 16.9862 2.29199 16.5 2.29199H15.125C14.8819 2.29199 14.6487 2.38857 14.4768 2.56048C14.3049 2.73239 14.2083 2.96554 14.2083 3.20866C14.2083 3.45177 14.3049 3.68493 14.4768 3.85684C14.6487 4.02875 14.8819 4.12533 15.125 4.12533Z" fill="#895C41"/>
<path d="M6.41602 5.04167H11.916C12.2807 5.04167 12.6304 4.8968 12.8883 4.63894C13.1461 4.38108 13.291 4.03134 13.291 3.66667V3.20833C13.291 2.84366 13.1461 2.49392 12.8883 2.23606C12.6304 1.9782 12.2807 1.83333 11.916 1.83333H10.9993C10.9993 1.3471 10.8062 0.880788 10.4624 0.536971C10.1186 0.193154 9.65225 0 9.16602 0C8.67979 0 8.21347 0.193154 7.86965 0.536971C7.52584 0.880788 7.33268 1.3471 7.33268 1.83333H6.41602C6.05134 1.83333 5.70161 1.9782 5.44374 2.23606C5.18588 2.49392 5.04102 2.84366 5.04102 3.20833V3.66667C5.04102 4.03134 5.18588 4.38108 5.44374 4.63894C5.70161 4.8968 6.05134 5.04167 6.41602 5.04167ZM3.66602 9.16667C3.66602 9.40978 3.76259 9.64294 3.9345 9.81485C4.10641 9.98676 4.33957 10.0833 4.58268 10.0833H11.916C12.1591 10.0833 12.3923 9.98676 12.5642 9.81485C12.7361 9.64294 12.8327 9.40978 12.8327 9.16667C12.8327 8.92355 12.7361 8.69039 12.5642 8.51849C12.3923 8.34658 12.1591 8.25 11.916 8.25H4.58268C4.33957 8.25 4.10641 8.34658 3.9345 8.51849C3.76259 8.69039 3.66602 8.92355 3.66602 9.16667ZM4.58268 12.8333C4.33957 12.8333 4.10641 12.9299 3.9345 13.1018C3.76259 13.2737 3.66602 13.5069 3.66602 13.75C3.66602 13.9931 3.76259 14.2263 3.9345 14.3982C4.10641 14.5701 4.33957 14.6667 4.58268 14.6667H8.70768C8.9508 14.6667 9.18395 14.5701 9.35586 14.3982C9.52777 14.2263 9.62435 13.9931 9.62435 13.75C9.62435 13.5069 9.52777 13.2737 9.35586 13.1018C9.18395 12.9299 8.9508 12.8333 8.70768 12.8333H4.58268ZM21.4585 7.55333C21.115 7.21187 20.6504 7.02021 20.166 7.02021C19.6817 7.02021 19.217 7.21187 18.8735 7.55333L11.6593 14.7675C11.6143 14.8111 11.5799 14.8644 11.5585 14.9233L10.2568 18.1592C10.2245 18.2427 10.2168 18.3337 10.2346 18.4215C10.2525 18.5092 10.2952 18.59 10.3577 18.6542C10.4206 18.7187 10.5014 18.7628 10.5897 18.7808C10.6779 18.7987 10.7696 18.7898 10.8527 18.755L14.0977 17.4625C14.155 17.438 14.2077 17.4039 14.2535 17.3617L21.4585 10.1475C21.629 9.97723 21.7642 9.77504 21.8565 9.55247C21.9487 9.32991 21.9962 9.09134 21.9962 8.85042C21.9962 8.60949 21.9487 8.37092 21.8565 8.14836C21.7642 7.9258 21.629 7.7236 21.4585 7.55333Z" fill="#895C41"/>
</g>
<defs>
<clipPath id="clip0_194_64555">
<rect width="22" height="22" fill="white"/>
</clipPath>
</defs>
</svg>
